<svg version="1.0" xmlns="http://www.w3.org/2000/svg" width="684.000000pt" height="900.000000pt" viewBox="0 0 684.000000 900.000000" preserveAspectRatio="xMidYMid meet">
<metadata>
Created by potrace 1.10, written by Peter Selinger 2001-2011
</metadata>
<g transform="translate(0.000000,900.000000) scale(0.100000,-0.100000)" fill="var(--color-primary)" stroke="none">
<path d="M3585 8934 c-251 -21 -468 -114 -637 -271 l-79 -75 -62 9 c-94 12 -354 9 -422 -6 -293 -65 -560 -230 -721 -448 -89 -120 -173 -306 -205 -455 -13 -59 -28 -71 -114 -93 -347 -87 -544 -185 -742 -367 -336 -308 -522 -765 -474 -1162 39 -315 181 -611 398 -829 48 -48 119 -110 158 -136 101 -70 270 -152 425 -206 208 -72 184 -41 190 -248 6 -222 3 -218 121 -189 46 11 109 27 139 35 58 16 181 49 340 90 128 33 298 61 605 99 211 26 601 14 875 -27 52 -8 147 -21 210 -31 63 -9 180 -29 260 -44 80 -16 186 -36 235 -45 50 -9 109 -20 132 -25 22 -6 70 -14 105 -20 34 -5 115 -19 178 -30 270 -47 438 -60 745 -58 l290 3 3 156 c2 109 6 160 15 166 6 6 35 16 62 23 272 69 526 219 751 444 275 275 430 633 428 986 -2 300 -100 533 -321 762 -80 83 -93 101 -93 130 0 19 -7 60 -15 91 -8 32 -15 69 -15 82 0 30 -57 189 -103 286 -132 281 -414 539 -703 642 -143 51 -381 74 -494 48 -56 -13 -78 0 -124 72 -167 261 -452 463 -811 574 -152 48 -395 78 -530 67z m300 -304 c199 -47 252 -65 380 -131 117 -60 206 -123 285 -200 79 -78 170 -202 170 -232 0 -9 -26 -50 -59 -90 -62 -77 -152 -217 -178 -276 -17 -41 -83 -220 -83 -226 0 -3 8 -5 18 -5 11 0 46 34 86 84 68 85 79 95 176 176 67 56 85 67 197 126 140 73 188 86 333 86 137 0 190 -12 312 -72 105 -52 159 -90 246 -175 140 -134 208 -241 273 -425 27 -78 33 -110 33 -180 l1 -85 -41 3 c-112 9 -313 -57 -430 -141 -69 -50 -196 -192 -192 -214 5 -24 34 -18 83 16 64 45 110 64 279 114 21 6 100 11 175 11 125 0 143 -3 222 -30 136 -48 207 -119 279 -278 84 -185 80 -455 -10 -671 -72 -172 -161 -304 -295 -436 -110 -108 -176 -159 -305 -235 -85 -50 -100 -58 -175 -90 -22 -9 -59 -26 -83 -36 -24 -11 -46 -17 -50 -14 -3 4 -7 158 -7 342 -1 374 -7 343 75 384 82 41 174 112 288 225 76 75 112 118 112 133 0 29 -18 28 -86 -3 -30 -14 -57 -25 -60 -25 -3 0 -20 -6 -37 -14 -89 -40 -202 -67 -405 -96 -205 -29 -595 6 -802 73 -92 30 -207 76 -276 109 -142 70 -381 223 -470 303 -6 6 -40 35 -74 65 -109 95 -106 91 -85 107 11 7 27 13 38 13 10 0 42 6 70 14 119 31 155 39 222 47 39 4 90 13 115 18 25 6 107 10 182 11 75 0 139 4 142 9 9 14 -71 48 -139 60 -33 5 -105 20 -160 32 -138 30 -464 33 -600 5 -215 -44 -511 -166 -759 -313 -49 -29 -91 -53 -94 -53 -6 0 -188 -111 -241 -147 -19 -13 -38 -23 -43 -23 -5 0 -18 21 -29 48 -11 26 -24 56 -29 67 -5 11 -19 61 -31 110 -18 73 -23 121 -23 252 -1 142 -3 163 -17 163 -26 0 -44 -30 -79 -125 -18 -49 -36 -99 -41 -110 -16 -39 -49 -225 -49 -280 0 -70 -26 -198 -50 -245 -39 -76 -139 -148 -250 -178 -92 -25 -348 -38 -460 -23 -90 12 -191 40 -245 68 -68 35 -159 109 -193 157 -34 47 -72 62 -72 29 0 -41 55 -202 85 -248 71 -112 231 -220 368 -250 39 -8 44 -32 36 -170 -3 -66 -10 -182 -14 -257 -4 -75 -11 -142 -16 -149 -8 -13 -85 6 -156 37 -17 8 -38 14 -47 14 -36 0 -241 119 -331 192 -5 5 -23 18 -38 29 -59 45 -189 227 -235 331 -79 178 -107 300 -106 473 1 171 17 237 102 415 147 306 407 537 723 643 133 45 188 60 201 54 7 -2 19 -24 26 -48 8 -24 33 -84 56 -134 104 -217 341 -503 383 -461 3 3 -10 32 -30 63 -88 144 -131 290 -147 500 -11 146 0 333 25 433 32 125 112 270 202 365 88 94 260 195 398 235 44 12 93 26 109 31 47 15 262 11 300 -5 33 -14 34 -16 40 -88 23 -259 84 -445 209 -639 40 -62 54 -81 129 -171 38 -47 72 -52 62 -10 -4 15 -18 44 -31 64 -12 21 -23 40 -23 44 0 3 -6 20 -14 37 -56 127 -97 341 -103 546 -7 196 15 260 127 372 82 83 163 124 350 177 64 18 286 14 375 -8z m-458 -2234 c26 -24 67 -59 90 -78 23 -18 84 -67 135 -109 117 -95 225 -170 354 -245 124 -73 133 -78 289 -144 28 -12 59 -25 70 -30 90 -39 265 -86 430 -115 88 -16 384 -45 421 -42 18 2 19 -15 20 -463 0 -272 -4 -470 -9 -477 -6 -8 -34 -13 -76 -13 -76 0 -456 28 -486 35 -11 3 -67 12 -125 20 -58 9 -145 22 -195 30 -49 9 -119 20 -155 26 -36 5 -108 19 -160 30 -213 44 -288 59 -350 68 -36 6 -108 18 -160 26 -115 20 -321 41 -530 55 -161 11 -515 5 -585 -10 -22 -4 -74 -11 -115 -15 -69 -6 -160 -22 -250 -45 -19 -5 -80 -20 -135 -34 -55 -14 -125 -32 -155 -41 -117 -35 -131 -38 -139 -29 -9 10 2 322 19 534 5 75 10 172 10 215 0 44 4 86 8 92 5 7 28 17 53 22 24 5 78 16 119 25 177 36 413 135 573 239 84 55 281 174 342 207 28 15 91 50 140 77 50 28 151 80 225 117 74 36 155 77 180 91 65 36 91 33 147 -19z"/>
<path d="M2949 3601 c-37 -10 -98 -35 -135 -56 -73 -40 -251 -165 -344 -241 -186 -152 -242 -184 -354 -204 -80 -13 -284 -13 -343 2 -69 16 -152 46 -177 63 -51 37 -48 -2 6 -74 145 -193 302 -323 476 -393 120 -48 207 -68 332 -74 270 -15 516 45 738 179 137 83 231 180 281 292 33 75 37 80 52 80 8 0 15 -9 17 -20 2 -11 10 -38 19 -60 101 -243 476 -450 853 -472 326 -18 599 85 826 313 96 97 186 216 173 229 -6 6 -16 5 -29 -3 -103 -64 -375 -93 -541 -58 -93 19 -149 50 -268 147 -332 271 -469 350 -630 365 -127 12 -280 -46 -372 -140 -44 -45 -51 -48 -73 -38 -14 6 -32 23 -42 37 -30 45 -151 112 -236 129 -97 20 -146 19 -229 -3z"/>
<path d="M1590 2486 c0 -20 19 -59 73 -156 119 -210 219 -341 388 -505 264 -256 339 -286 576 -231 130 30 133 30 133 12 0 -7 -33 -33 -72 -57 -209 -123 -331 -337 -370 -641 -30 -237 49 -515 218 -776 55 -85 72 -100 97 -85 28 16 184 234 247 343 96 169 208 436 232 555 4 22 14 74 22 115 9 41 22 128 30 193 18 141 23 502 7 521 -6 8 -39 17 -74 20 -204 23 -461 82 -622 144 -306 117 -630 323 -834 528 -36 36 -51 42 -51 20z"/>
<path d="M5314 2480 c-42 -44 -234 -201 -314 -257 -344 -243 -732 -383 -1183 -429 -62 -6 -69 -9 -78 -32 -14 -37 -2 -435 17 -547 35 -214 49 -277 91 -405 48 -145 133 -332 203 -445 57 -94 193 -286 219 -309 21 -19 22 -19 46 4 91 86 233 369 270 540 50 233 17 459 -102 693 -56 112 -153 206 -275 268 -56 28 -68 42 -49 53 5 4 58 -6 118 -20 155 -38 244 -32 337 20 179 100 449 378 603 621 55 87 133 236 133 254 0 17 -14 13 -36 -9z"/>
<path d="M3340 1789 c-56 -12 -80 -49 -80 -122 0 -35 7 -90 15 -122 34 -138 94 -205 180 -205 109 0 180 110 191 295 9 135 -26 164 -191 163 -44 -1 -96 -4 -115 -9z"/>
</g>
</svg>
